<?xml version="1.0" encoding="UTF-8" standalone="no"?>
<svg width="48px" height="48px" viewBox="0 0 48 48" version="1.1" xmlns="http://www.w3.org/2000/svg" xmlns:xlink="http://www.w3.org/1999/xlink">
    <!-- Generator: Sketch 3.6.1 (26313) - http://www.bohemiancoding.com/sketch -->
    <title>brackets</title>
    <desc>Created with Sketch.</desc>
    <defs>
        <filter x="-50%" y="-50%" width="200%" height="200%" filterUnits="objectBoundingBox" id="filter-1">
            <feOffset dx="0" dy="1" in="SourceAlpha" result="shadowOffsetOuter1"></feOffset>
            <feGaussianBlur stdDeviation="0.5" in="shadowOffsetOuter1" result="shadowBlurOuter1"></feGaussianBlur>
            <feColorMatrix values="0 0 0 0 0   0 0 0 0 0   0 0 0 0 0  0 0 0 0.21 0" in="shadowBlurOuter1" type="matrix" result="shadowMatrixOuter1"></feColorMatrix>
            <feMerge>
                <feMergeNode in="shadowMatrixOuter1"></feMergeNode>
                <feMergeNode in="SourceGraphic"></feMergeNode>
            </feMerge>
        </filter>
    </defs>
    <g id="Page-1" stroke="none" stroke-width="1" fill="none" fill-rule="evenodd">
        <g id="brackets">
            <path d="M43,42 C43,42.6 42.6,43 42,43 L6,43 C5.4,43 5,42.6 5,42 L5,6 C5,5.4 5.4,5 6,5 L42,5 C42.6,5 43,5.4 43,6 L43,42 L43,42 Z" id="Shape" fill="#2571B8" filter="url(#filter-1)"></path>
            <rect id="Rectangle-path" fill="#F4F4F4" x="10" y="10" width="28" height="28"></rect>
            <path d="M22,30 L18,30 L18,18 L22,18 L22,14 L14,14 L14,34 L22,34 L22,30 Z" id="Shape" fill="#3C3C3C"></path>
            <path d="M26,14 L26,18 L30,18 L30,30 L26,30 L26,34 L34,34 L34,14 L26,14 Z" id="Shape" fill="#3C3C3C"></path>
        </g>
    </g>
</svg>geBA+CB8GD4EHwIHgQPAgeBI/gQfAgeBA8CB4ED4IHwYPgQfAgeBA8gvefAMGD4EHw
IHgQPAgeBA+CB8GD4EHwIHgED4IHwYPgQfAgeBA8CB4ED4IHwYPgETwIHgQPggfBg+BB8CB4EDwI
HgQPgkfwIHgQPAgeBA+CB8GD4EHwIHgQPAgeBI/gQfAgeBA8CB4ED4IHwYPgQfAgeBA8ggfBg+BB
8CB4EDwIHgQPggfBg+BB8AgeBA+CB8GD4EHwIHgQPAgeBA93Df5wYcFUh4HHN9PPeEL3+HqIG+fN
N9N+xBM4XLnD74+r8/+NG04Nh8bJcPPgh2LOa5eOnesDJgS/G+grtjc7/H5gBGnt5jnyj7J26bgI
X7+w23PFyFt7iU3l1ToJRoffpx/eDezwuxD0e1rbslbl+3blcSd4Rowz+9BXbao2Fk+EHH1ro74Y
fIw97+qt2N/Kej2uTYq9L+OM4Bkb/K6E/lpW7Ww7EH5rhz9MmeHzk4hnXn0yz43Y1+VjOzxTRpoY
/HNZLyH+bRp59gOjzWHMDJ9n9l3Y1esTeSqx9yH20+cf7PDM3OFra6fOfh7XP6W3l7Tb5/Fm8l2a
1hPYlh/2EmKvO/tH+dxG8MwI/pCCfymx/12OzyH694HR5jAl+EVjnKm/Zp5K1Ku0sz+F4FeCZ0bw
ubca/c8S/WsabfZj7tZcGmni7P4S5vMY++lJPJbYH0rsgmfsHL9PzdVdvo42P9No8z43+HqnpnXB
+hZCXoRfPfUsXKdxZil2ZszxH2mMrteNNfh416aeKItrwh8aaeorpjXsLsQbr6af0+wexxmxM2eX
j9G/ltDjHZubjDT5h3flL+7SbF9393WKfRViFzxzdvm62cabJtuBOzWT79IcGnHnJxSvpB9C6Dl2
wTP14jW/4Blf9PwYmN8n36U5pNEm37mpT2AVRphlGmXEzi2ij+HH92y13lszaYcfGm1aZ9+50AXP
nFn+3LtzY+T7gY16UHfF5+Jx2RhbxM49o8+b7dD75Bdzgz8X/tBjuGf4i8WEd0iODb71dd2Vn4Op
obc+nv1vXrsbf4/YuUf0syK/V6Bi51dEDwAAAMD/3r8CDADAYLCnfx5dcgAAAABJRU5ErkJggg==" transform="matrix(0.24 0 0 0.24 2.0145 3.0064)">
		</image>
		<g>
			<path fill="#2571B8" d="M43,42c0,0.6-0.4,1-1,1H6c-0.6,0-1-0.4-1-1V6c0-0.6,0.4-1,1-1h36c0.6,0,1,0.4,1,1V42z"/>
		</g>
	</g>
	<rect x="10" y="10" fill="#F4F4F4" width="28" height="28"/>
	<g>
		<polygon fill="#3C3C3C" points="22,30 18,30 18,18 22,18 22,14 14,14 14,34 22,34 		"/>
		<polygon fill="#3C3C3C" points="26,14 26,18 30,18 30,30 26,30 26,34 34,34 34,14 		"/>
	</g>
</g>
</svg>
